<svg width="209" height="256" fill="none" xmlns="http://www.w3.org/2000/svg"><path fill="#fff" d="M0 0h209v256H0z"/><rect x="17" y="192" width="64" height="64" rx="32" fill="#FCF0E6"/><path fill-rule="evenodd" clip-rule="evenodd" d="M41.5 214a.5.5 0 00-.5.5v19a.5.5 0 00.5.5h15a.5.5 0 00.5-.5V220l-6-6h-9.5zm7.484 10.001a2.001 2.001 0 000-4.001 2 2 0 000 4.001zm0 .999c-1.333 0-4 .668-4 2v.869c0 .072.06.131.13.131h7.74c.072 0 .13-.059.13-.131v-.868c0-1.333-2.667-2.001-4-2.001z" fill="#996E2C"/><rect x="73" y="96" width="64" height="64" rx="32" fill="#FCEEF4"/><path fill-rule="evenodd" clip-rule="evenodd" d="M96.5 119a.5.5 0 00-.5.5v13a.5.5 0 00.5.5H99v3.522c0 .36.482.766.921.316l3.405-3.838H113.5a.5.5 0 00.5-.5v-13a.5.5 0 00-.5-.5h-17zm2.5 4.5a.5.5 0 01.5-.5h10a.5.5 0 01.5.5v1a.5.5 0 01-.5.5h-10a.5.5 0 01-.5-.5v-1zm.5 3.5a.5.5 0 00-.5.5v1a.5.5 0 00.5.5h7a.5.5 0 00.5-.5v-1a.5.5 0 00-.5-.5h-7z" fill="#C74289"/><path d="M69.354 128.354a.501.501 0 000-.708l-3.182-3.182a.5.5 0 00-.707.708L68.293 128l-2.829 2.828a.501.501 0 00.708.708l3.182-3.182zM45 127.5a.5.5 0 000 1v-1zm-36 54a.5.5 0 000 1v-1zm48-25a.5.5 0 000-1v1zM1.5 168a.5.5 0 00-1 0h1zm31 2a.5.5 0 001 0h-1zM21 182v.5-.5zm12.5-12a.5.5 0 00-1 0h1zM45 128.5a.5.5 0 000-1v1zm-20-33a.5.5 0 000 1v-1zm32 77a.5.5 0 000-1v1zm-34-32a.5.5 0 000-1v1zM65.5 164a.5.5 0 00-1 0h1zm-8.5 7.5a.5.5 0 000 1v-1zm-32-75a.5.5 0 000-1v1zm-2 43a.5.5 0 000 1v-1zm-14 43a.5.5 0 000-1v1zm48-27a.5.5 0 000 1v-1zm7.5 8.5a.5.5 0 001 0h-1zm-64 4a.5.5 0 001 0h-1zm49 18a.5.5 0 00-1 0h1zm-1-4a.5.5 0 001 0h-1zm1.143-3.464a.5.5 0 00-.981-.194l.98.194zm.289-3.259a.5.5 0 00.831.556l-.831-.556zm2.901-1.514a.5.5 0 00-.556-.831l.556.831zm2.509-2.101a.5.5 0 10.194.981l-.194-.981zm3.316.676a.5.5 0 10-.194-.981l.194.981zm2.509-2.101a.5.5 0 00.556.831l-.556-.831zm2.901-1.514a.5.5 0 00-.831-.556l.831.556zm.29-3.259a.5.5 0 00.98.194l-.98-.194zm.98-3.122a.5.5 0 00-.98.194l.98-.194zm-2.101-2.509a.5.5 0 10.831-.556l-.831.556zm-1.514-2.901a.5.5 0 10-.556.831l.556-.831zm-3.259-.289a.5.5 0 00.194-.981l-.194.981zm-2.893-1.143a.5.5 0 000 1v-1zm-2.857 1a.5.5 0 000-1v1zm-2.857-1a.5.5 0 000 1v-1zm-2.857 1a.5.5 0 000-1v1zm-2.857-1a.5.5 0 000 1v-1zm-2.857 1a.5.5 0 000-1v1zm-2.857-1a.5.5 0 000 1v-1zm-2.858 1a.5.5 0 000-1v1zm-2.857-1a.5.5 0 000 1v-1zm-2.857 1a.5.5 0 000-1v1zm-2.857-1a.5.5 0 000 1v-1zm-2.857 1a.5.5 0 000-1v1zm-2.857-1a.5.5 0 000 1v-1zm-2.857 1a.5.5 0 000-1v1zm-2.429-1a.5.5 0 000 1v-1zm-2 1a.5.5 0 000-1v1zm-2.632-.894a.5.5 0 10.13.991l-.13-.991zm-2.77 1.766a.5.5 0 10-.383-.923l.383.923zm-3.208.711a.5.5 0 10.61.793l-.61-.793zm-1.514 2.916a.5.5 0 10-.793-.609l.793.609zm-2.427 2.216a.5.5 0 10.923.383l-.923-.383zm.148 3.282a.5.5 0 00-.991-.129l.991.129zM.5 169.5a.5.5 0 001 0h-1zm1 3a.5.5 0 00-1 0h1zm-.838 3.158a.5.5 0 00.98-.194l-.98.194zm2.101 2.509a.5.5 0 10-.831.556l.831-.556zm1.514 2.901a.5.5 0 10.556-.831l-.556.831zm3.259.289a.5.5 0 00-.194.981l.194-.981zM10.5 182.5a.5.5 0 000-1v1zm3-1a.5.5 0 000 1v-1zm3 1a.5.5 0 000-1v1zm3-1a.5.5 0 000 1v-1zm3.132.894a.5.5 0 10-.13-.991l.13.991zm2.77-1.766a.5.5 0 10.383.923l-.383-.923zm3.208-.711a.5.5 0 10-.61-.793l.61.793zm1.514-2.916a.5.5 0 10.793.609l-.793-.609zm2.427-2.216a.5.5 0 10-.923-.383l.923.383zm-.148-3.282a.5.5 0 00.991.129l-.991-.129zm1.097-3.17a.5.5 0 00-1 0h1zm-1-3.333a.5.5 0 001 0h-1zm1-3.333a.5.5 0 00-1 0h1zm-1-3.334a.5.5 0 001 0h-1zm1-3.333a.5.5 0 00-1 0h1zm-1-3.333a.5.5 0 001 0h-1zm.911-3.038a.5.5 0 10-.991.13l.991-.13zm-1.632-2.265a.5.5 0 00.924-.383l-.924.383zm-.448-2.757a.5.5 0 00-.793.61l.793-.61zm-2.548-1.145a.5.5 0 10.61-.792l-.61.792zm-1.764-2.165a.5.5 0 10-.383.924l.383-.924zm-2.778.283a.5.5 0 10.13-.991l-.13.991zm-2.482-1.16a.5.5 0 10-.13.991l.13-.991zm-2.778.283a.5.5 0 10.383-.924l-.383.924zm-1.764-2.165a.5.5 0 10-.61.792l.61-.792zm-2.547-1.145a.5.5 0 00.793-.61l-.793.61zm-.45-2.757a.5.5 0 00-.923.383l.924-.383zm-1.631-2.265a.5.5 0 10.991-.13l-.991.13zm.911-2.746a.5.5 0 00-1 0h1zm-1-2.75a.5.5 0 001 0h-1zm1-2.75a.5.5 0 00-1 0h1zm-1-2.75a.5.5 0 001 0h-1zm1-2.75a.5.5 0 00-1 0h1zm-1-2.75a.5.5 0 001 0h-1zm1-2.75a.5.5 0 00-1 0h1zm-1-2.75a.5.5 0 001 0h-1zm1.097-2.878a.5.5 0 00-.991-.129l.991.129zm-.148-3.282a.5.5 0 10.923.383l-.923-.383zm2.427-2.216a.5.5 0 10-.793-.609l.793.609zm1.514-2.916a.5.5 0 00.61.793l-.61-.793zm3.208-.71a.5.5 0 10-.383-.924l.383.923zm2.77-1.767a.5.5 0 00.13.991l-.13-.991zm3.135.991a.5.5 0 10.129-.991l-.13.991zm3.282-.148a.5.5 0 00-.383.923l.383-.923zm2.216 2.427a.5.5 0 00.61-.793l-.61.793zm2.916 1.514a.5.5 0 00-.793.609l.793-.609zm.71 3.208a.5.5 0 00.924-.383l-.923.383zm1.767 2.77a.5.5 0 10-.991.129l.991-.129zM36.5 109.5a.5.5 0 001 0h-1zm1 3a.5.5 0 00-1 0h1zm-1 3a.5.5 0 001 0h-1zm1 3a.5.5 0 00-1 0h1zm-.838 3.158a.5.5 0 00.98-.194l-.98.194zm2.101 2.509a.5.5 0 10-.831.556l.831-.556zm1.514 2.901a.5.5 0 10.556-.831l-.556.831zm3.259.289a.5.5 0 00-.194.981l.194-.981zM46.5 128.5a.5.5 0 000-1v1zm3-1a.5.5 0 000 1v-1zm3 1a.5.5 0 000-1v1zm3-1a.5.5 0 000 1v-1zm3 1a.5.5 0 000-1v1zm3-1a.5.5 0 000 1v-1zm3 1a.5.5 0 000-1v1zm3-1a.5.5 0 000 1v-1zm-18 60.5v-2h-1v2h1zm0-6v-2h-1v2h1zm0-2c0-.502.05-.991.143-1.464l-.981-.194A8.53 8.53 0 0048.5 180h1zm1.263-4.167a7.548 7.548 0 012.07-2.07l-.556-.831a8.534 8.534 0 00-2.345 2.345l.831.556zm4.773-3.19A7.51 7.51 0 0157 172.5v-1c-.567 0-1.122.056-1.658.162l.194.981zM57 172.5c.567 0 1.122-.056 1.658-.162l-.194-.981A7.51 7.51 0 0157 171.5v1zm4.723-1.432a8.534 8.534 0 002.345-2.345l-.831-.556a7.548 7.548 0 01-2.07 2.07l.556.831zm3.615-5.41A8.53 8.53 0 0065.5 164h-1c0 .502-.05.991-.143 1.464l.981.194zM65.5 164a8.53 8.53 0 00-.162-1.658l-.98.194c.093.473.142.962.142 1.464h1zm-1.432-4.723a8.534 8.534 0 00-2.345-2.345l-.556.831a7.548 7.548 0 012.07 2.07l.831-.556zm-5.41-3.615A8.553 8.553 0 0057 155.5v1c.502 0 .991.049 1.464.143l.194-.981zM57 155.5h-1.429v1H57v-1zm-4.286 0h-2.857v1h2.857v-1zm-5.714 0h-2.857v1H47v-1zm-5.714 0h-2.857v1h2.857v-1zm-5.715 0h-2.857v1h2.857v-1zm-5.714 0H27v1h2.857v-1zm-5.714 0h-2.857v1h2.857v-1zm-5.714 0H17v1h1.429v-1zm-1.429 0h-1v1h1v-1zm-3 0h-1v1h1v-1zm-1 0c-.553 0-1.098.036-1.632.106l.13.991c.49-.064.993-.097 1.502-.097v-1zm-4.785.949a12.463 12.463 0 00-2.825 1.634l.61.793a11.477 11.477 0 012.598-1.504l-.383-.923zm-5.132 3.941c-.661.86-1.213 1.809-1.634 2.825l.923.383c.388-.935.895-1.807 1.504-2.599l-.793-.609zm-2.477 5.978C.536 166.902.5 167.447.5 168h1c0-.51.033-1.011.097-1.503l-.991-.129zM.5 168v1.5h1V168h-1zm0 4.5v1.5h1v-1.5h-1zm0 1.5c0 .567.056 1.122.162 1.658l.98-.194A7.531 7.531 0 011.5 174h-1zm1.432 4.723a8.535 8.535 0 002.345 2.345l.556-.831a7.548 7.548 0 01-2.07-2.07l-.831.556zm5.41 3.615A8.554 8.554 0 009 182.5v-1c-.502 0-.991-.049-1.464-.143l-.194.981zM9 182.5h1.5v-1H9v1zm4.5 0h3v-1h-3v1zm6 0H21v-1h-1.5v1zm1.5 0c.553 0 1.098-.036 1.632-.106l-.13-.991c-.49.064-.992.097-1.502.097v1zm4.785-.949a12.463 12.463 0 002.825-1.634l-.61-.793a11.474 11.474 0 01-2.598 1.504l.383.923zm5.132-3.941a12.5 12.5 0 001.634-2.825l-.923-.383a11.49 11.49 0 01-1.504 2.599l.793.609zm2.477-5.978c.07-.534.106-1.079.106-1.632h-1c0 .51-.033 1.011-.097 1.503l.991.129zM33.5 170v-1.667h-1V170h1zm0-5v-3.333h-1V165h1zm0-6.667V155h-1v3.333h1zm0-6.666V150h-1v1.667h1zm0-1.667c0-.464-.03-.922-.089-1.371l-.991.13c.053.406.08.82.08 1.241h1zm-.797-4.019a10.507 10.507 0 00-1.373-2.374l-.792.61a9.491 9.491 0 011.241 2.147l.924-.383zm-3.31-4.311a10.455 10.455 0 00-2.374-1.373l-.383.924a9.5 9.5 0 012.147 1.241l.61-.792zm-5.022-2.081A10.515 10.515 0 0023 139.5v1c.421 0 .835.027 1.241.08l.13-.991zM23 139.5c-.421 0-.835-.027-1.241-.08l-.13.991c.45.059.907.089 1.371.089v-1zm-3.636-.721a9.5 9.5 0 01-2.147-1.241l-.61.792c.723.556 1.52 1.019 2.374 1.373l.383-.924zm-3.902-2.996a9.491 9.491 0 01-1.241-2.147l-.924.383c.354.854.817 1.651 1.372 2.374l.793-.61zm-1.882-4.542A9.599 9.599 0 0113.5 130h-1c0 .464.03.922.089 1.371l.991-.13zM13.5 130v-1.375h-1V130h1zm0-4.125v-2.75h-1v2.75h1zm0-5.5v-2.75h-1v2.75h1zm0-5.5v-2.75h-1v2.75h1zm0-5.5V108h-1v1.375h1zm0-1.375c0-.51.033-1.011.097-1.503l-.991-.129c-.07.534-.106 1.079-.106 1.632h1zm.872-4.402a11.49 11.49 0 011.504-2.599l-.793-.609a12.5 12.5 0 00-1.634 2.825l.923.383zM18 98.876a11.482 11.482 0 012.6-1.504l-.384-.923a12.489 12.489 0 00-2.825 1.634l.61.793zm5.498-2.279c.492-.064.994-.097 1.503-.097v-1c-.553 0-1.098.036-1.632.106l.13.991zM25 96.5c.51 0 1.011.033 1.503.097l.129-.991c-.534-.07-1.08-.106-1.632-.106v1zm4.402.872c.935.388 1.807.895 2.599 1.504l.61-.793a12.489 12.489 0 00-2.826-1.634l-.383.923zM34.124 101a11.49 11.49 0 011.504 2.599l.923-.383a12.5 12.5 0 00-1.634-2.825l-.793.609zm2.279 5.498c.064.492.097.993.097 1.503h1c0-.553-.036-1.098-.106-1.632l-.991.129zM36.5 108v1.5h1V108h-1zm0 4.5v3h1v-3h-1zm0 6v1.5h1v-1.5h-1zm0 1.5c0 .567.056 1.122.162 1.658l.98-.194A7.532 7.532 0 0137.5 120h-1zm1.432 4.723a8.534 8.534 0 002.345 2.345l.556-.831a7.548 7.548 0 01-2.07-2.07l-.831.556zm5.41 3.615A8.553 8.553 0 0045 128.5v-1a7.51 7.51 0 01-1.464-.143l-.194.981zM45 128.5h1.5v-1H45v1zm4.5 0h3v-1h-3v1zm6 0h3v-1h-3v1zm6 0h3v-1h-3v1zm6 0H69v-1h-1.5v1zM141.354 31.646a.5.5 0 010 .707l-3.182 3.182a.501.501 0 01-.708-.707L140.293 32l-2.829-2.828a.5.5 0 01.708-.707l3.182 3.181zM181 88.5a.5.5 0 010-1v1zM169.5 100a.5.5 0 01-1 0h1zM181 87.5a.5.5 0 010 1v-1zM89.5 44a.5.5 0 01-1 0h1zm79 56a.5.5 0 011 0h-1zm12.5 76.5a.5.5 0 010-1v1zm0-1a.5.5 0 010 1v-1zM88.5 44a.5.5 0 011 0h-1zm51.071-11.5a.5.5 0 010-1v1zm-2.857-1a.5.5 0 010 1v-1zm-2.857 1a.5.5 0 010-1v1zm-2.857-1a.5.5 0 010 1v-1zm-2.857 1a.5.5 0 010-1v1zm-2.857-1a.5.5 0 010 1v-1zm-2.857 1a.5.5 0 110-1v1zm-2.858-1a.5.5 0 110 1v-1zm-2.857 1a.5.5 0 010-1v1zm-2.857-1a.5.5 0 010 1v-1zm-2.857 1a.5.5 0 010-1v1zm-2.857-1a.5.5 0 010 1v-1zm-2.857 1a.5.5 0 010-1v1zm-2.857-1a.5.5 0 010 1v-1zm-2.932 1.097a.5.5 0 11-.129-.991l.13.991zm-3.282-.148a.5.5 0 01.383.923l-.383-.923zm-2.216 2.427a.5.5 0 01-.61-.793l.61.793zm-2.916 1.514a.5.5 0 01.793.61l-.793-.61zm-.71 3.208a.5.5 0 01-.924-.383l.923.383zm-1.767 2.77a.5.5 0 01.991.13l-.991-.13zm.991 3.135a.5.5 0 11-.991.129l.991-.13zm-.148 3.282a.5.5 0 01.923-.383l-.923.383zm2.427 2.216a.5.5 0 01-.793.61l.793-.61zm1.514 2.916a.5.5 0 01.61-.793l-.61.793zm3.208.71a.5.5 0 11-.383.924l.383-.923zm2.77 1.767a.5.5 0 01.13-.991l-.13.991zm3.132-.894a.5.5 0 010 1v-1zm3 1a.5.5 0 010-1v1zm3-1a.5.5 0 010 1v-1zm3 1a.5.5 0 010-1v1zm3-1a.5.5 0 010 1v-1zm3 1a.5.5 0 010-1v1zm3-1a.5.5 0 010 1v-1zm3 1a.5.5 0 010-1v1zm3.117-.922a.501.501 0 01-.097.996l.097-.996zm2.884 1.585a.5.5 0 01.29-.956l-.29.956zm3.279.283a.5.5 0 01-.472.881l.472-.881zm2.053 2.572a.5.5 0 01.635-.773l-.635.773zm2.922 1.514a.5.5 0 01-.773.635l.773-.635zm.918 3.16a.499.499 0 11.881-.472l-.881.472zm2.121 2.517a.5.5 0 01-.958.29l.958-.29zm-.368 3.27a.501.501 0 01.996-.096l-.996.097zm1.074 3.146a.5.5 0 01-1 0h1zm-1 3.25a.5.5 0 011 0h-1zm1 3.25a.5.5 0 01-1 0h1zm-1 3.25a.5.5 0 011 0h-1zm1 3.25a.5.5 0 01-1 0h1zm-1 3.25a.5.5 0 011 0h-1zm1 3.25a.5.5 0 01-1 0h1zm-1 3.25a.5.5 0 011 0h-1zm1.064 2.95a.5.5 0 11-.995.096l.995-.097zm-.443 2.885a.5.5 0 11.957-.29l-.957.29zm1.97 2.155a.499.499 0 11-.881.472l.881-.472zm.7 2.834a.501.501 0 01.773-.635l-.773.635zm2.645 1.237a.501.501 0 01-.635.773l.635-.773zm1.727 2.354a.5.5 0 01.472-.881l-.472.881zm2.917.132a.5.5 0 01-.29.957l.29-.957zm2.499 1.509a.5.5 0 11.097-.995l-.097.995zm1.921-.931a.5.5 0 010 1v-1zm1 1a.5.5 0 010-1v1zm2.003-1.097a.5.5 0 01.129.991l-.129-.991zm3.282.148a.5.5 0 11-.383-.923l.383.923zm2.216-2.427a.5.5 0 01.609.793l-.609-.793zm2.916-1.514a.5.5 0 01-.793-.609l.793.609zm.711-3.208a.5.5 0 11.923.383l-.923-.383zm1.766-2.77a.499.499 0 11-.991-.129l.991.129zm-.788-3.264a.5.5 0 11.991.13l-.991-.13zm1.766-2.77a.5.5 0 11-.923-.383l.923.383zm.711-3.208a.5.5 0 11.793.61l-.793-.61zm2.916-1.514a.5.5 0 11-.609-.793l.609.793zm2.216-2.427a.5.5 0 11.383.923l-.383-.923zm3.282.148a.5.5 0 01-.129-.991l.129.991zm3.135-.991a.5.5 0 11-.129.991l.129-.991zm2.77 1.766a.5.5 0 01.383-.923l-.383.923zm3.208.71a.5.5 0 01-.609.794l.609-.793zM190.124 93a.5.5 0 01.793-.61l-.793.61zm2.427 2.216a.5.5 0 11-.923.383l.923-.383zm-.148 3.282a.5.5 0 11.991-.129l-.991.13zm1.097 2.958a.5.5 0 01-1 0h1zm-1 2.909a.5.5 0 111 0h-1zm1 2.909a.5.5 0 01-1 0h1zm-1 2.909a.5.5 0 011 0h-1zm1 2.909a.5.5 0 01-1 0h1zm-1 2.909a.5.5 0 011 0h-1zm1 2.909a.5.5 0 01-1 0h1zm-1 2.909a.5.5 0 011 0h-1zm1 2.909a.5.5 0 01-1 0h1zm-1 2.909a.5.5 0 011 0h-1zm1 2.909a.5.5 0 11-1 0h1zm-1 2.91a.5.5 0 111 0h-1zm1 2.909a.5.5 0 01-1 0h1zm-1 2.909a.5.5 0 011 0h-1zm1 2.909a.5.5 0 01-1 0h1zm-1 2.909a.5.5 0 011 0h-1zm1 2.909a.5.5 0 01-1 0h1zm-1 2.909a.5.5 0 011 0h-1zm1 2.909a.5.5 0 01-1 0h1zm-1 2.909a.5.5 0 011 0h-1zm1 2.909a.5.5 0 11-1 0h1zm-1 2.909a.5.5 0 011 0h-1zm.894 3.087a.499.499 0 11-.991-.129l.991.129zm-1.766 2.77a.5.5 0 11.923.383l-.923-.383zm-.711 3.208a.5.5 0 01-.793-.609l.793.609zm-2.916 1.514a.5.5 0 01.609.793l-.609-.793zm-2.216 2.427a.5.5 0 11-.383-.923l.383.923zm-3.282-.148a.5.5 0 01.129.991l-.129-.991zm-3.135.991a.499.499 0 11.129-.991l-.129.991zm-2.77-1.766a.5.5 0 11-.383.923l.383-.923zm-3.208-.711a.5.5 0 01.609-.793l-.609.793zm-1.514-2.916a.5.5 0 01-.793.609l.793-.609zm-2.427-2.216a.5.5 0 11.923-.383l-.923.383zm.148-3.282a.5.5 0 01-.991.129l.991-.129zm-1.097-3.17a.5.5 0 011 0h-1zm1-3.333a.5.5 0 01-1 0h1zm-1-3.333a.5.5 0 011 0h-1zm1-3.334a.5.5 0 01-1 0h1zm-1-3.333a.5.5 0 011 0h-1zm1-3.333a.5.5 0 01-1 0h1zm-1.074-3.187a.502.502 0 01.996-.097l-.996.097zm.368-3.271a.5.5 0 01-.958.29l.958-.29zm-2.121-2.517a.499.499 0 11.881-.472l-.881.472zm-.918-3.16a.5.5 0 01-.773.635l.773-.635zm-2.922-1.514a.501.501 0 01.635-.773l-.635.773zm-2.053-2.572a.499.499 0 11-.472.881l.472-.881zm-3.279-.282a.501.501 0 01.29-.958l-.29.958zm-2.884-1.586a.502.502 0 01-.097.996l.097-.996zm-2.992.922a.5.5 0 010-1v1zm-2.75-1a.5.5 0 010 1v-1zm-2.75 1a.5.5 0 010-1v1zm-2.75-1a.5.5 0 010 1v-1zM141 32.5h-1.429v-1H141v1zm-4.286 0h-2.857v-1h2.857v1zm-5.714 0h-2.857v-1H131v1zm-5.714 0h-2.857v-1h2.857v1zm-5.715 0h-2.857v-1h2.857v1zm-5.714 0H111v-1h2.857v1zm-5.714 0h-2.857v-1h2.857v1zm-5.714 0H101v-1h1.429v1zm-1.429 0c-.51 0-1.011.033-1.503.097l-.129-.991c.534-.07 1.079-.106 1.632-.106v1zm-4.402.872c-.935.388-1.807.895-2.599 1.504l-.61-.793c.86-.661 1.81-1.213 2.826-1.634l.383.923zM91.876 37a11.482 11.482 0 00-1.504 2.6l-.923-.384a12.489 12.489 0 011.634-2.825l.793.61zm-2.279 5.498c-.064.492-.097.993-.097 1.503h-1c0-.553.036-1.098.106-1.632l.991.13zM89.5 44c0 .51.033 1.011.097 1.503l-.991.129c-.07-.534-.106-1.08-.106-1.632h1zm.872 4.402c.388.935.895 1.807 1.504 2.599l-.793.61a12.489 12.489 0 01-1.634-2.826l.923-.383zM94 53.124a11.482 11.482 0 002.6 1.504l-.384.923a12.489 12.489 0 01-2.825-1.634l.61-.793zm5.498 2.279c.492.064.993.097 1.503.097v1c-.553 0-1.098-.036-1.632-.106l.13-.991zM101 55.5h1.5v1H101v-1zm4.5 0h3v1h-3v-1zm6 0h3v1h-3v-1zm6 0h3v1h-3v-1zm6 0h1.5v1h-1.5v-1zm1.5 0c.546 0 1.085.026 1.617.078l-.097.996c-.5-.05-1.007-.074-1.52-.074v-1zm4.791.706c1.044.317 2.044.734 2.989 1.24l-.472.881a15.417 15.417 0 00-2.807-1.163l.29-.958zm5.677 3.039a16.6 16.6 0 012.287 2.287l-.773.635a15.534 15.534 0 00-2.149-2.15l.635-.772zm4.086 4.975c.506.945.923 1.945 1.24 2.989l-.958.29a15.359 15.359 0 00-1.163-2.807l.881-.472zm1.868 6.163c.052.532.078 1.071.078 1.617h-1c0-.513-.025-1.02-.074-1.52l.996-.097zM141.5 72v1.625h-1V72h1zm0 4.875v3.25h-1v-3.25h1zm0 6.5v3.25h-1v-3.25h1zm0 6.5v3.25h-1v-3.25h1zm0 6.5V98h-1v-1.625h1zm0 1.625c0 .447.022.889.064 1.324l-.995.097A14.517 14.517 0 01140.5 98h1zm.578 3.92c.258.854.599 1.672 1.013 2.445l-.881.472a14.405 14.405 0 01-1.089-2.627l.957-.29zm2.486 4.644a13.463 13.463 0 001.872 1.872l-.635.773a14.573 14.573 0 01-2.01-2.01l.773-.635zm4.071 3.345c.773.414 1.591.755 2.445 1.013l-.29.957a14.405 14.405 0 01-2.627-1.089l.472-.881zm5.041 1.527c.435.042.877.064 1.324.064v1c-.479 0-.953-.023-1.421-.069l.097-.995zm1.324.064h.5v1h-.5v-1zm1.5 0h.5v1h-.5v-1zm.5 0c.51 0 1.011-.033 1.503-.097l.129.991c-.534.07-1.079.106-1.632.106v-1zm4.402-.872a11.481 11.481 0 002.599-1.504l.609.793a12.473 12.473 0 01-2.825 1.634l-.383-.923zm4.722-3.627a11.481 11.481 0 001.504-2.599l.923.383a12.473 12.473 0 01-1.634 2.825l-.793-.609zm2.279-5.498c.064-.492.097-.993.097-1.503h1c0 .553-.036 1.098-.106 1.632l-.991-.129zM168.5 100c0-.553.036-1.098.106-1.632l.991.13c-.064.49-.097.992-.097 1.502h-1zm.949-4.785a12.463 12.463 0 011.634-2.825l.793.61a11.474 11.474 0 00-1.504 2.598l-.923-.383zm3.941-5.132a12.5 12.5 0 012.825-1.634l.383.923a11.49 11.49 0 00-2.599 1.504l-.609-.793zm5.978-2.477c.534-.07 1.079-.106 1.632-.106v1c-.51 0-1.011.033-1.503.097l-.129-.991zM181 87.5c.553 0 1.098.036 1.632.106l-.129.991A11.622 11.622 0 00181 88.5v-1zm4.785.949a12.5 12.5 0 012.825 1.634l-.609.793a11.49 11.49 0 00-2.599-1.504l.383-.923zm5.132 3.94c.661.86 1.213 1.81 1.634 2.826l-.923.383A11.474 11.474 0 00190.124 93l.793-.61zm2.477 5.979c.07.534.106 1.08.106 1.632h-1c0-.51-.033-1.011-.097-1.503l.991-.129zM193.5 100v1.455h-1V100h1zm0 4.364v2.909h-1v-2.909h1zm0 5.818v2.909h-1v-2.909h1zm0 5.818v2.909h-1V116h1zm0 5.818v2.909h-1v-2.909h1zm0 5.818v2.909h-1v-2.909h1zm0 5.819v2.909h-1v-2.909h1zm0 5.818v2.909h-1v-2.909h1zm0 5.818V148h-1v-2.909h1zm0 5.818v2.909h-1v-2.909h1zm0 5.818v2.909h-1v-2.909h1zm0 5.818V164h-1v-1.455h1zm0 1.455c0 .553-.036 1.098-.106 1.632l-.991-.129c.064-.492.097-.993.097-1.503h1zm-.949 4.785a12.473 12.473 0 01-1.634 2.825l-.793-.609a11.481 11.481 0 001.504-2.599l.923.383zm-3.941 5.132a12.473 12.473 0 01-2.825 1.634l-.383-.923a11.481 11.481 0 002.599-1.504l.609.793zm-5.978 2.477c-.534.07-1.079.106-1.632.106v-1c.51 0 1.011-.033 1.503-.097l.129.991zM181 176.5c-.553 0-1.098-.036-1.632-.106l.129-.991c.492.064.993.097 1.503.097v1zm-4.785-.949a12.473 12.473 0 01-2.825-1.634l.609-.793a11.481 11.481 0 002.599 1.504l-.383.923zm-5.132-3.941a12.473 12.473 0 01-1.634-2.825l.923-.383c.388.935.895 1.807 1.504 2.599l-.793.609zm-2.477-5.978A12.555 12.555 0 01168.5 164h1c0 .51.033 1.011.097 1.503l-.991.129zM168.5 164v-1.667h1V164h-1zm0-5v-3.333h1V159h-1zm0-6.667V149h1v3.333h-1zm0-6.666V144h1v1.667h-1zm0-1.667c0-.513-.025-1.02-.074-1.52l.996-.097c.052.532.078 1.071.078 1.617h-1zm-.664-4.501a15.379 15.379 0 00-1.163-2.807l.881-.472c.506.945.923 1.945 1.24 2.989l-.958.29zm-2.854-5.332a15.477 15.477 0 00-2.149-2.149l.635-.773a16.587 16.587 0 012.287 2.287l-.773.635zm-4.674-3.84a15.379 15.379 0 00-2.807-1.163l.29-.958c1.044.317 2.044.734 2.989 1.24l-.472.881zm-5.788-1.753a15.58 15.58 0 00-1.52-.074v-1c.546 0 1.085.026 1.617.078l-.097.996zM153 128.5h-1.375v-1H153v1zm-4.125 0h-2.75v-1h2.75v1zm-5.5 0H142v-1h1.375v1z" fill="#B4B2B1"/><rect x="145" width="64" height="64" rx="32" fill="#E6F5F1"/><path fill-rule="evenodd" clip-rule="evenodd" d="M172.5 22.024a.5.5 0 00-.5.5v3.5h-4.5a.5.5 0 00-.5.5v13a.5.5 0 00.5.5h19a.5.5 0 00.5-.5v-13a.5.5 0 00-.5-.5H182v-3.5a.5.5 0 00-.5-.5h-9zm1.5 2h6v2h-6v-2zm6.89 5.118a.5.5 0 01.707 0l.707.707a.5.5 0 010 .707l-6.364 6.365a.5.5 0 01-.707 0l-3.536-3.536a.5.5 0 010-.707l.707-.707a.5.5 0 01.707 0l2.475 2.475 5.304-5.304z" fill="#358271"/></svg>